<svg width="173" height="40" viewBox="0 0 173 40" fill="none" xmlns="http://www.w3.org/2000/svg"><path d="M40.9774 18.8508L39.5696 16.4137L35.2962 9.00971C35.276 8.97465 35.2676 8.93406 35.2722 8.89388C35.2768 8.85369 35.2941 8.81605 35.3217 8.78645C36.7295 7.2292 37.2139 4.8186 35.93 2.43259C35.5369 1.7076 34.9382 1.11509 34.2091 0.729649C30.8032 -1.07925 27.3794 0.700306 26.4144 3.60099C26.4022 3.63958 26.3781 3.67328 26.3454 3.69712C26.3127 3.72096 26.2732 3.7337 26.2327 3.73345H15.5099C15.2273 3.73342 14.9498 3.8078 14.7051 3.94914C14.4605 4.09047 14.2574 4.29376 14.1163 4.53854L12.7132 6.96904L10.2279 11.2746C10.085 11.5243 9.86928 11.7242 9.60953 11.8476C9.34977 11.9711 9.05848 12.0121 8.77473 11.9653C7.33858 11.724 5.7624 11.8915 4.17109 12.5774C2.94119 13.1063 1.44829 14.5178 0.86834 15.7212C-1.84407 21.3542 2.19285 26.8982 7.51834 26.8982C8.37304 26.8991 9.22162 26.7539 10.0273 26.4687C10.0693 26.4531 10.1154 26.4529 10.1575 26.4682C10.1996 26.4834 10.235 26.5131 10.2572 26.5519L13.2099 31.6655L14.6168 34.1016C14.7579 34.3461 14.9609 34.5491 15.2053 34.6903C15.4498 34.8314 15.7271 34.9058 16.0094 34.9058H24.9177C24.958 34.9058 24.9972 34.9186 25.0297 34.9424C25.0622 34.9662 25.0863 34.9998 25.0984 35.0383C25.4077 35.9737 25.9208 36.8287 26.6007 37.5417C27.2806 38.2548 28.1104 38.8079 29.03 39.1613C29.9497 39.5148 30.9363 39.6596 31.9188 39.5854C32.9012 39.5112 33.8549 39.2198 34.711 38.7323C35.5671 38.2448 36.3044 37.5733 36.8695 36.7662C37.4346 35.9592 37.8135 35.0367 37.9788 34.0655C38.1441 33.0942 38.0918 32.0984 37.8255 31.1498C37.5592 30.2013 37.0857 29.3236 36.439 28.5803C36.4123 28.5505 36.3958 28.5131 36.3917 28.4733C36.3876 28.4335 36.3962 28.3935 36.4163 28.3589L39.5696 22.8953L40.9774 20.4601C41.1187 20.2155 41.1931 19.938 41.1931 19.6555C41.1931 19.373 41.1187 19.0954 40.9774 18.8508ZM29.6244 4.20931C30.175 3.27647 31.4371 2.81573 32.667 3.56976C32.8007 3.65271 32.9162 3.76181 33.0067 3.89049C33.4693 4.55275 33.5525 5.19797 33.4144 5.7571C33.3434 6.04573 33.211 6.31565 33.0263 6.54852C32.8416 6.78139 32.6089 6.97173 32.344 7.10658C32.0791 7.24143 31.7883 7.31765 31.4913 7.33001C31.1943 7.34237 30.8982 7.29058 30.623 7.17821C30.3478 7.06583 30.1001 6.89548 29.8967 6.67877C29.6932 6.46205 29.5389 6.20404 29.4442 5.92232C29.3494 5.6406 29.3164 5.34178 29.3475 5.04618C29.3787 4.75058 29.4731 4.46514 29.6244 4.20931ZM11.9015 20.1034C11.759 20.9574 11.3712 21.7514 10.7852 22.3888C10.1993 23.0261 9.44058 23.4793 8.60159 23.6929C7.57888 23.9531 6.41898 23.8471 5.2553 23.2851C4.60934 22.9719 4.07602 22.4666 3.72834 21.8386C1.83145 18.4043 4.26382 14.9255 7.51265 14.9255C7.70604 14.9249 7.89922 14.9382 8.09069 14.9653C8.85301 15.0622 9.57658 15.3574 10.1891 15.8215C10.4622 16.027 10.7107 16.2631 10.9299 16.5254C11.4238 17.1148 11.7549 17.8232 11.8902 18.5803C11.939 18.843 11.9634 19.1096 11.963 19.3769C11.9651 19.6212 11.9458 19.8653 11.9053 20.1063L11.9015 20.1034ZM12.7587 13.9918H12.7539C12.688 13.928 12.6454 13.844 12.6327 13.7531C12.62 13.6623 12.638 13.5698 12.6839 13.4904L15.9829 7.77604C16.124 7.53127 16.3271 7.32798 16.5717 7.18664C16.8164 7.0453 17.0939 6.9709 17.3765 6.97093H24.1135C24.1967 6.97108 24.2775 6.99861 24.3435 7.0493C24.4094 7.09999 24.4568 7.17101 24.4784 7.25136C24.4999 7.3317 24.4944 7.41691 24.4626 7.49379C24.4309 7.57068 24.3747 7.63496 24.3027 7.6767L13.2506 14.0571C13.1734 14.1008 13.0842 14.1183 12.9961 14.1071C12.9081 14.0958 12.8261 14.0564 12.7624 13.9946L12.7587 13.9918ZM24.017 31.6627H17.8675C17.585 31.6628 17.3076 31.5885 17.0629 31.4474C16.8183 31.3062 16.6151 31.1031 16.4739 30.8585L13.5817 25.8367C13.5297 25.7465 13.5088 25.6417 13.5224 25.5384C13.536 25.4352 13.5833 25.3393 13.6569 25.2657C13.7306 25.1921 13.8264 25.1448 13.9297 25.1312C14.0329 25.1176 14.1377 25.1385 14.2279 25.1905L24.2062 30.9512C24.2826 30.9902 24.3434 31.0541 24.3787 31.1322C24.414 31.2103 24.4218 31.2981 24.4007 31.3813C24.3796 31.4644 24.3309 31.5379 24.2625 31.5897C24.1942 31.6415 24.1103 31.6686 24.0246 31.6664L24.017 31.6627ZM26.5619 28.3958C26.5329 28.4281 26.4936 28.4493 26.4507 28.4561C26.4078 28.4628 26.3639 28.4545 26.3264 28.4327L15.2913 22.0618C15.1166 21.9607 14.9789 21.8063 14.8982 21.6213C14.8175 21.4363 14.7981 21.2303 14.8429 21.0334C15.091 19.9217 15.0862 18.7684 14.8287 17.6588C14.7823 17.4611 14.8008 17.2537 14.8814 17.0673C14.962 16.8809 15.1004 16.7254 15.2762 16.6238L27.456 9.58967C27.6092 9.50131 27.7841 9.45765 27.9609 9.46367C28.1376 9.46969 28.3092 9.52514 28.456 9.62372C28.7033 9.79176 28.9648 9.93802 29.2375 10.0608C29.4029 10.1358 29.5433 10.2569 29.6418 10.4096C29.7402 10.5623 29.7927 10.7401 29.7928 10.9218V26.3428C29.7929 26.3849 29.779 26.4257 29.7533 26.4589C29.7276 26.4921 29.6916 26.5159 29.6509 26.5264C28.4704 26.8535 27.4037 27.5016 26.5695 28.3987L26.5619 28.3958ZM31.4134 36.4545C30.4839 36.4545 29.5925 36.0853 28.9352 35.428C28.278 34.7708 27.9087 33.8793 27.9087 32.9498C27.9087 32.0203 28.278 31.1288 28.9352 30.4716C29.5925 29.8143 30.4839 29.445 31.4134 29.445C31.6129 29.445 31.8121 29.4624 32.0085 29.4971C32.8824 29.6357 33.6714 30.1001 34.2168 30.7968C34.7621 31.4936 35.0234 32.3711 34.948 33.2527C34.8726 34.1343 34.4661 34.9546 33.8104 35.5487C33.1546 36.1427 32.2982 36.4664 31.4134 36.4545ZM37.2281 20.4554L33.8156 26.3674C33.7665 26.4522 33.6904 26.5181 33.5995 26.5544C33.5086 26.5908 33.4081 26.5956 33.3141 26.568H33.3075C33.2282 26.5445 33.1586 26.496 33.1091 26.4296C33.0597 26.3633 33.033 26.2827 33.0331 26.2V13.0107C33.0301 12.925 33.0562 12.8407 33.1073 12.7718C33.1584 12.7029 33.2314 12.6534 33.3143 12.6314C33.3972 12.6094 33.4852 12.6163 33.5637 12.6508C33.6422 12.6853 33.7067 12.7455 33.7465 12.8215L37.2281 18.8527C37.3699 19.0962 37.4452 19.3727 37.4465 19.6545C37.4478 19.9362 37.3751 20.2134 37.2356 20.4582L37.2281 20.4554Z" fill="#2DAFE7"></path><path d="M52.1694 22.4157V7.08919C52.1694 6.97503 52.2148 6.86552 52.2955 6.78479C52.3762 6.70406 52.4857 6.65872 52.5999 6.65872H56.1108C56.225 6.65872 56.3344 6.70406 56.4152 6.78479C56.4959 6.86552 56.5413 6.97503 56.5413 7.08919V22.4157C56.5413 22.5299 56.4959 22.6395 56.4152 22.7204C56.3345 22.8013 56.225 22.8468 56.1108 22.8471H52.5999C52.5433 22.8471 52.4872 22.8359 52.4349 22.8142C52.3827 22.7925 52.3352 22.7607 52.2952 22.7207C52.2552 22.6806 52.2235 22.633 52.2019 22.5807C52.1804 22.5284 52.1693 22.4723 52.1694 22.4157Z" fill="#2DAFE7"></path><path d="M82.1952 22.4157V13.2113C82.1947 13.1153 82.1623 13.0222 82.103 12.9468C82.0437 12.8713 81.9609 12.8178 81.8678 12.7947C81.7746 12.7716 81.6764 12.7801 81.5887 12.8191C81.501 12.858 81.4288 12.9251 81.3835 13.0097L76.3068 22.62C76.2703 22.6889 76.2159 22.7466 76.1493 22.7871C76.0827 22.8276 76.0063 22.8493 75.9284 22.8499H72.25C72.1721 22.8493 72.0958 22.8276 72.0292 22.7871C71.9625 22.7466 71.9081 22.6889 71.8716 22.62L66.794 13.0126C66.749 12.9277 66.6769 12.8603 66.5891 12.8211C66.5014 12.782 66.4031 12.7733 66.3098 12.7965C66.2166 12.8196 66.1338 12.8733 66.0746 12.949C66.0154 13.0247 65.9832 13.118 65.9832 13.2141V22.4185C65.9832 22.5328 65.9379 22.6423 65.8572 22.7232C65.7765 22.8041 65.667 22.8497 65.5527 22.8499H62.0418C61.9276 22.8497 61.8181 22.8041 61.7374 22.7232C61.6567 22.6423 61.6114 22.5328 61.6114 22.4185V7.09203C61.6114 7.0355 61.6225 6.97952 61.6441 6.9273C61.6658 6.87507 61.6975 6.8276 61.7375 6.78763C61.7774 6.74765 61.8249 6.71595 61.8771 6.69431C61.9293 6.67268 61.9853 6.66156 62.0418 6.66156H67.2916C67.3694 6.66182 67.4457 6.68315 67.5123 6.7233C67.579 6.76345 67.6335 6.8209 67.6701 6.88956L73.7089 18.2056C73.7458 18.2738 73.8005 18.3307 73.8671 18.3703C73.9337 18.41 74.0098 18.4309 74.0873 18.4309C74.1648 18.4309 74.2409 18.41 74.3075 18.3703C74.3741 18.3307 74.4288 18.2738 74.4658 18.2056L80.5046 6.88956C80.5412 6.8209 80.5957 6.76345 80.6623 6.7233C80.729 6.68315 80.8052 6.66182 80.883 6.66156H86.1101C86.1666 6.66156 86.2226 6.67268 86.2748 6.69431C86.3271 6.71595 86.3745 6.74765 86.4145 6.78763C86.4545 6.8276 86.4862 6.87507 86.5078 6.9273C86.5294 6.97952 86.5406 7.0355 86.5406 7.09203V22.4185C86.5406 22.5328 86.4953 22.6423 86.4146 22.7232C86.3339 22.8041 86.2244 22.8497 86.1101 22.8499H82.6285C82.5715 22.8502 82.515 22.8391 82.4622 22.8174C82.4095 22.7956 82.3615 22.7636 82.3212 22.7232C82.2809 22.6828 82.249 22.6349 82.2274 22.5821C82.2058 22.5293 82.1948 22.4727 82.1952 22.4157Z" fill="#2DAFE7"></path><path d="M106.529 10.5537C106.529 10.6246 106.512 10.6944 106.478 10.7568C106.445 10.8193 106.397 10.8726 106.338 10.9119C106.279 10.9512 106.211 10.9753 106.14 10.9822C106.07 10.989 105.999 10.9783 105.933 10.9511C105.744 10.8744 105.542 10.7931 105.315 10.7089C104.811 10.5197 104.241 10.3408 103.607 10.1724C102.924 9.99403 102.231 9.85254 101.533 9.7486C100.772 9.63371 100.004 9.57646 99.235 9.57736C98.6043 9.57736 98.0682 9.59724 97.6267 9.63697C97.251 9.66643 96.8774 9.71728 96.5075 9.78928C96.2605 9.83538 96.0194 9.90868 95.7885 10.0078C95.6411 10.0718 95.504 10.1573 95.3817 10.2614C95.2992 10.3304 95.2363 10.4198 95.1991 10.5206C95.1732 10.5966 95.1592 10.676 95.1574 10.7562C95.1574 10.9921 95.2754 11.1983 95.5113 11.3749C95.8066 11.5821 96.1325 11.7417 96.4772 11.8479C96.9459 12.0015 97.4221 12.1313 97.9039 12.2368C98.4463 12.3585 99.0215 12.4847 99.6295 12.6152C100.238 12.7458 100.866 12.8871 101.515 13.0391C102.163 13.1923 102.791 13.3711 103.401 13.5755C103.992 13.7725 104.569 14.0106 105.127 14.2879C105.642 14.54 106.121 14.8581 106.553 15.234C106.953 15.5841 107.281 16.0081 107.52 16.4828C107.762 16.986 107.883 17.5392 107.873 18.0978C107.873 18.8754 107.735 19.5431 107.46 20.1006C107.197 20.6459 106.822 21.1295 106.359 21.5197C105.882 21.9148 105.342 22.2275 104.762 22.445C104.145 22.6802 103.508 22.8597 102.859 22.9814C102.193 23.1065 101.52 23.189 100.843 23.2283C100.164 23.2668 99.5179 23.2864 98.9049 23.287C97.4135 23.2969 95.9246 23.1648 94.4583 22.8925C93.3305 22.6828 92.2198 22.3893 91.1356 22.0145C91.0514 21.9848 90.9785 21.9298 90.9268 21.8569C90.8751 21.7841 90.8473 21.697 90.8471 21.6077V18.7506C90.847 18.6776 90.8656 18.6058 90.9009 18.5419C90.9363 18.4781 90.9874 18.4244 91.0493 18.3857C91.1112 18.3471 91.1819 18.3249 91.2548 18.3212C91.3277 18.3175 91.4003 18.3324 91.4658 18.3646C92.4459 18.8321 93.4728 19.1946 94.5292 19.4459C95.9785 19.7917 97.4641 19.9617 98.9541 19.9521C99.7136 19.9641 100.473 19.9151 101.225 19.8054C101.697 19.7387 102.158 19.6115 102.597 19.427C102.927 19.2737 103.151 19.1069 103.269 18.9265C103.378 18.7747 103.439 18.5945 103.446 18.4081C103.444 18.2754 103.411 18.1451 103.349 18.0274C103.288 17.9098 103.2 17.8082 103.092 17.7307C102.801 17.5084 102.475 17.337 102.126 17.2236C101.659 17.0615 101.183 16.9276 100.701 16.8224C100.159 16.7013 99.5832 16.5796 98.9739 16.4573C98.3646 16.3349 97.738 16.2034 97.0941 16.0627C96.4501 15.9215 95.8235 15.7546 95.2142 15.5623C94.6247 15.3769 94.0482 15.1525 93.4886 14.8906C92.9748 14.6533 92.4953 14.3481 92.0628 13.9833C91.6641 13.6459 91.3356 13.2334 91.0959 12.7694C90.8519 12.2731 90.7305 11.7254 90.7421 11.1725C90.7421 10.4572 90.8682 9.84037 91.1205 9.32192C91.3642 8.81428 91.7113 8.36315 92.1394 7.99741C92.5835 7.62298 93.085 7.32269 93.6248 7.1081C94.1983 6.87649 94.7922 6.6988 95.3987 6.57734C96.0208 6.4514 96.6502 6.36482 97.2833 6.31812C97.9197 6.27081 98.5249 6.24716 99.0988 6.24716C99.7295 6.24716 100.376 6.2787 101.037 6.34177C101.699 6.40484 102.353 6.49315 102.999 6.60668C103.643 6.72147 104.265 6.85328 104.867 7.00213C105.35 7.12134 105.803 7.24748 106.228 7.38056C106.317 7.40752 106.394 7.46217 106.449 7.53643C106.504 7.61069 106.534 7.70065 106.534 7.79306L106.529 10.5537Z" fill="#2DAFE7"></path><path d="M132.96 14.7676C132.96 16.1583 132.704 17.3857 132.194 18.4497C131.691 19.5046 130.939 20.4208 130.002 21.1186C129.05 21.8338 127.897 22.374 126.543 22.7392C125.188 23.1044 123.666 23.287 121.977 23.287C120.287 23.287 118.761 23.1044 117.399 22.7392C116.036 22.374 114.876 21.8338 113.916 21.1186C112.972 20.4218 112.212 19.5059 111.701 18.4497C111.182 17.3857 110.923 16.1583 110.923 14.7676C110.923 13.3768 111.182 12.1491 111.701 11.0845C112.212 10.0286 112.973 9.11279 113.916 8.41559C114.875 7.70162 116.036 7.16171 117.399 6.79589C118.762 6.43008 120.288 6.24716 121.977 6.24716C123.666 6.24716 125.188 6.43008 126.543 6.79589C127.897 7.16171 129.05 7.70162 130.002 8.41559C130.938 9.11391 131.691 10.03 132.194 11.0845C132.704 12.1466 132.96 13.3743 132.96 14.7676ZM128.541 14.7676C128.541 14.1535 128.445 13.5432 128.257 12.9586C128.054 12.342 127.702 11.7852 127.231 11.338C126.741 10.8593 126.071 10.4705 125.222 10.1715C124.373 9.87254 123.293 9.72337 121.982 9.724C121.203 9.71488 120.425 9.78399 119.66 9.93026C119.06 10.0438 118.478 10.2346 117.928 10.4979C117.477 10.7148 117.063 11.0023 116.702 11.3494C116.387 11.6563 116.121 12.0098 115.913 12.3976C115.718 12.7648 115.577 13.158 115.494 13.5651C115.413 13.9585 115.372 14.3592 115.37 14.7609C115.371 15.1686 115.413 15.5753 115.494 15.9748C115.577 16.3836 115.717 16.7784 115.913 17.1469C116.119 17.5333 116.386 17.8845 116.702 18.1876C117.063 18.5321 117.477 18.8167 117.928 19.0306C118.479 19.2921 119.061 19.4829 119.66 19.5982C120.425 19.7445 121.203 19.8136 121.982 19.8045C123.294 19.8045 124.374 19.6553 125.222 19.357C126.07 19.0587 126.739 18.6695 127.231 18.1895C127.702 17.7428 128.054 17.1863 128.257 16.5698C128.445 15.9875 128.541 15.3795 128.543 14.7676H128.541Z" fill="#2DAFE7"></path><path d="M141.317 10.5386V12.497C141.317 12.6111 141.362 12.7206 141.443 12.8014C141.523 12.8821 141.633 12.9274 141.747 12.9274H151.408C151.523 12.9274 151.632 12.9728 151.713 13.0535C151.794 13.1342 151.839 13.2437 151.839 13.3579V15.9492C151.838 16.0627 151.792 16.1712 151.712 16.2512C151.631 16.3311 151.522 16.3759 151.408 16.3759H141.747C141.633 16.3759 141.523 16.4213 141.443 16.502C141.362 16.5827 141.317 16.6922 141.317 16.8064V22.4147C141.317 22.529 141.271 22.6386 141.191 22.7194C141.11 22.8003 141 22.8459 140.886 22.8461H137.375C137.319 22.8461 137.263 22.835 137.21 22.8133C137.158 22.7916 137.111 22.7598 137.071 22.7197C137.031 22.6796 136.999 22.6321 136.977 22.5797C136.956 22.5274 136.945 22.4713 136.945 22.4147V7.08825C136.945 7.03172 136.956 6.97574 136.978 6.92351C136.999 6.87129 137.031 6.82382 137.071 6.78384C137.111 6.74387 137.158 6.71218 137.211 6.69055C137.263 6.66892 137.319 6.65778 137.375 6.65778H151.987C152.043 6.65778 152.099 6.66892 152.151 6.69055C152.203 6.71218 152.251 6.74387 152.291 6.78384C152.331 6.82382 152.363 6.87129 152.384 6.92351C152.406 6.97574 152.417 7.03172 152.417 7.08825V9.68049C152.417 9.79466 152.372 9.90415 152.291 9.98488C152.21 10.0656 152.101 10.111 151.987 10.111H141.747C141.633 10.111 141.524 10.1559 141.444 10.236C141.363 10.3162 141.317 10.4249 141.317 10.5386Z" fill="#2DAFE7"></path><path d="M165.227 10.6096V22.4157C165.227 22.5301 165.181 22.6398 165.101 22.7207C165.02 22.8016 164.91 22.8471 164.795 22.8471H161.286C161.229 22.8471 161.173 22.8359 161.121 22.8142C161.068 22.7925 161.021 22.7607 160.981 22.7207C160.941 22.6806 160.909 22.633 160.888 22.5807C160.866 22.5284 160.855 22.4723 160.855 22.4157V10.6096C160.855 10.5529 160.844 10.4968 160.822 10.4445C160.801 10.3921 160.769 10.3446 160.729 10.3045C160.689 10.2644 160.641 10.2327 160.589 10.211C160.536 10.1893 160.48 10.1781 160.424 10.1781H154.415C154.301 10.1781 154.191 10.1328 154.111 10.052C154.03 9.97132 153.985 9.86183 153.985 9.74767V7.08541C153.985 6.97124 154.03 6.86176 154.111 6.78103C154.191 6.7003 154.301 6.65494 154.415 6.65494H171.678C171.792 6.65494 171.902 6.7003 171.983 6.78103C172.063 6.86176 172.109 6.97124 172.109 7.08541V9.74767C172.109 9.86183 172.063 9.97132 171.983 10.052C171.902 10.1328 171.792 10.1781 171.678 10.1781H165.657C165.601 10.1781 165.545 10.1893 165.492 10.211C165.44 10.2327 165.393 10.2645 165.353 10.3045C165.313 10.3446 165.281 10.3922 165.259 10.4445C165.238 10.4969 165.227 10.5529 165.227 10.6096Z" fill="#2DAFE7"></path><path d="M56.0843 27.5709C56.589 27.5678 57.0929 27.614 57.5886 27.709C57.9804 27.7853 58.3664 27.889 58.7438 28.0193C58.779 28.0318 58.8096 28.0548 58.8312 28.0853C58.8529 28.1158 58.8647 28.1522 58.8649 28.1896V29.1148C58.8649 29.1451 58.8572 29.1749 58.8426 29.2015C58.828 29.2281 58.807 29.2505 58.7814 29.2667C58.7558 29.283 58.7266 29.2925 58.6963 29.2944C58.6661 29.2963 58.6359 29.2905 58.6085 29.2776C58.5271 29.2378 58.441 29.2 58.3502 29.1612C58.147 29.0775 57.9388 29.0067 57.7267 28.9493C57.4896 28.8853 57.2489 28.8357 57.0058 28.8008C56.7375 28.7629 56.4669 28.7442 56.196 28.7449C55.8871 28.7414 55.5786 28.7667 55.2745 28.8206C55.0431 28.8623 54.8173 28.9309 54.6018 29.025C54.4328 29.0991 54.2769 29.2001 54.1401 29.3239C54.0268 29.4288 53.931 29.5511 53.8563 29.6863C53.7884 29.809 53.7396 29.9414 53.7116 30.0789C53.6857 30.2069 53.6723 30.3371 53.6718 30.4677C53.6727 30.5874 53.6841 30.7067 53.7059 30.8244C53.7303 30.9581 53.7733 31.0877 53.8336 31.2095C53.902 31.3448 53.9907 31.4689 54.0966 31.5775C54.2236 31.7066 54.3722 31.8125 54.5356 31.8906C54.7425 31.9906 54.9612 32.064 55.1865 32.1092C55.4847 32.1675 55.7881 32.1947 56.0919 32.1905C56.2679 32.1905 56.4221 32.1905 56.5526 32.1745C56.6832 32.1584 56.8033 32.1499 56.9112 32.1309C57.0138 32.1134 57.1155 32.0906 57.2158 32.0628L57.3795 32.0165C57.4171 32.0056 57.4501 31.9829 57.4736 31.9517C57.4972 31.9204 57.51 31.8824 57.5101 31.8433V31.4933C57.5101 31.4456 57.4911 31.3999 57.4574 31.3662C57.4237 31.3325 57.378 31.3135 57.3303 31.3135H56.0238C55.9761 31.3135 55.9304 31.2946 55.8967 31.2609C55.863 31.2272 55.844 31.1815 55.844 31.1338V30.2833C55.844 30.2356 55.863 30.1899 55.8967 30.1561C55.9304 30.1224 55.9761 30.1035 56.0238 30.1035H58.8175C58.8652 30.1035 58.9109 30.1224 58.9447 30.1561C58.9784 30.1899 58.9973 30.2356 58.9973 30.2833V32.7856C58.9973 32.824 58.985 32.8614 58.9622 32.8922C58.9394 32.923 58.9072 32.9457 58.8705 32.9569C58.7068 33.008 58.5271 33.0515 58.3341 33.0988C58.0891 33.1537 57.8374 33.2 57.5772 33.2388C57.3171 33.2776 57.0559 33.3079 56.7939 33.3287C56.5318 33.3495 56.2849 33.3609 56.0531 33.3609C55.7049 33.3621 55.3571 33.3381 55.0124 33.2889C54.6967 33.2446 54.3859 33.1701 54.0843 33.0666C53.8083 32.9725 53.5446 32.8455 53.2991 32.6882C53.0684 32.5384 52.8641 32.3513 52.6945 32.1347C52.5234 31.914 52.3918 31.6653 52.3057 31.3996C52.2095 31.0985 52.1629 30.7838 52.1676 30.4677C52.1632 30.1519 52.2118 29.8375 52.3114 29.5378C52.4022 29.2707 52.5386 29.0213 52.7144 28.8008C52.8901 28.5843 53.0997 28.3977 53.335 28.2482C53.585 28.0911 53.8527 27.964 54.1326 27.8698C54.4349 27.7666 54.7462 27.6922 55.0625 27.6475C55.4008 27.5971 55.7423 27.5715 56.0843 27.5709Z" fill="#2DAFE7"></path><path d="M76.4611 33.2208H75.3333C75.2856 33.2208 75.2399 33.2019 75.2062 33.1682C75.1725 33.1344 75.1536 33.0887 75.1536 33.0411V27.8944C75.1536 27.8467 75.1725 27.801 75.2062 27.7673C75.2399 27.7336 75.2856 27.7146 75.3333 27.7146H78.8802C79.2243 27.7074 79.5678 27.7494 79.9 27.8395C80.1498 27.9065 80.3821 28.0265 80.5812 28.1914C80.7525 28.3399 80.8828 28.5298 80.9597 28.743C81.0415 28.9738 81.0816 29.2172 81.0779 29.462C81.0831 29.6692 81.0511 29.8755 80.9833 30.0713C80.923 30.2351 80.8332 30.3864 80.7184 30.5179C80.6069 30.6426 80.4762 30.749 80.3315 30.8329C80.2539 30.8774 80.1735 30.919 80.0911 30.9559C80.0657 30.9671 80.0432 30.984 80.0254 31.0054C80.0076 31.0267 79.995 31.0519 79.9886 31.079C79.9822 31.106 79.9821 31.1342 79.9884 31.1612C79.9947 31.1883 80.0072 31.2136 80.0249 31.235L81.4261 32.9266C81.4478 32.9528 81.4616 32.9847 81.4658 33.0185C81.4701 33.0523 81.4647 33.0866 81.4502 33.1175C81.4357 33.1483 81.4128 33.1744 81.3841 33.1927C81.3553 33.211 81.322 33.2207 81.288 33.2208H80.0164C79.9898 33.2208 79.9635 33.2148 79.9394 33.2034C79.9154 33.1919 79.8942 33.1753 79.8773 33.1546L78.3182 31.2624C78.3013 31.2419 78.2801 31.2254 78.256 31.2141C78.232 31.2028 78.2057 31.197 78.1791 31.1971H76.8215C76.7738 31.1971 76.7281 31.2161 76.6944 31.2498C76.6607 31.2835 76.6417 31.3292 76.6417 31.3769V33.0448C76.6408 33.092 76.6213 33.1369 76.5874 33.1698C76.5536 33.2028 76.5082 33.2211 76.4611 33.2208ZM79.5774 29.4545C79.5796 29.3619 79.5655 29.2697 79.5358 29.182C79.5075 29.1072 79.4561 29.0432 79.3892 28.9994C79.3046 28.9462 79.2099 28.9115 79.111 28.8972C78.9672 28.8735 78.8216 28.8627 78.6758 28.8651H76.8206C76.797 28.8651 76.7736 28.8697 76.7518 28.8787C76.73 28.8878 76.7102 28.901 76.6935 28.9177C76.6768 28.9344 76.6635 28.9542 76.6545 28.976C76.6455 28.9978 76.6408 29.0212 76.6408 29.0448V29.8632C76.6408 29.8868 76.6455 29.9102 76.6545 29.932C76.6635 29.9538 76.6768 29.9736 76.6935 29.9903C76.7102 30.007 76.73 30.0202 76.7518 30.0293C76.7736 30.0383 76.797 30.0429 76.8206 30.0429H78.6758C78.8216 30.0453 78.9672 30.0345 79.111 30.0108C79.2099 29.9966 79.3046 29.9617 79.3892 29.9086C79.456 29.865 79.5073 29.8014 79.5358 29.727C79.5655 29.6393 79.5796 29.547 79.5774 29.4545Z" fill="#2DAFE7"></path><path d="M105.631 30.4725C105.64 30.9043 105.551 31.3324 105.371 31.7251C105.2 32.0835 104.944 32.3949 104.626 32.6324C104.273 32.8896 103.874 33.0766 103.45 33.183C102.428 33.4315 101.362 33.4315 100.34 33.183C99.914 33.0767 99.5123 32.8898 99.1565 32.6324C98.8346 32.3956 98.5748 32.0843 98.3997 31.7251C98.2256 31.3306 98.1357 30.9041 98.1357 30.4729C98.1357 30.0418 98.2256 29.6153 98.3997 29.2208C98.5745 28.8612 98.8343 28.5495 99.1565 28.3126C99.5123 28.0552 99.914 27.8683 100.34 27.762C101.362 27.5135 102.428 27.5135 103.45 27.762C103.874 27.8684 104.273 28.0553 104.626 28.3126C104.945 28.5502 105.2 28.8619 105.371 29.2208C105.551 29.6131 105.64 30.041 105.631 30.4725ZM104.129 30.4725C104.13 30.2638 104.098 30.0564 104.035 29.8575C103.966 29.648 103.846 29.4588 103.686 29.3069C103.49 29.1265 103.256 28.9909 103.002 28.9096C102.646 28.7982 102.274 28.7467 101.901 28.7572C101.636 28.7542 101.371 28.7777 101.111 28.8273C100.907 28.8665 100.71 28.932 100.523 29.0221C100.369 29.0963 100.228 29.1944 100.105 29.3126C99.9983 29.4172 99.9077 29.5375 99.8367 29.6693C99.7712 29.7941 99.7234 29.9276 99.6948 30.0657C99.6676 30.1996 99.6537 30.3358 99.6532 30.4725C99.6536 30.611 99.6675 30.7492 99.6948 30.885C99.7232 31.0241 99.771 31.1585 99.8367 31.2842C99.9075 31.4156 99.9982 31.5353 100.105 31.639C100.229 31.7547 100.37 31.8505 100.523 31.9228C100.71 32.0106 100.908 32.0742 101.111 32.112C101.371 32.1616 101.636 32.1851 101.901 32.1821C102.274 32.1926 102.646 32.1411 103.002 32.0297C103.256 31.9487 103.49 31.8134 103.686 31.6333C103.846 31.4809 103.966 31.2915 104.035 31.0817C104.097 30.8847 104.129 30.6792 104.129 30.4725Z" fill="#2DAFE7"></path><path d="M127.458 32.0685C127.308 32.3269 127.098 32.5456 126.845 32.7062C126.532 32.9051 126.187 33.0505 125.826 33.1366C124.883 33.3473 123.907 33.3473 122.965 33.1366C122.602 33.0512 122.256 32.9057 121.941 32.7062C121.689 32.5456 121.478 32.3269 121.328 32.0685C121.193 31.8315 121.123 31.5634 121.123 31.2908V27.8235C121.123 27.7998 121.128 27.7765 121.137 27.7547C121.146 27.7329 121.159 27.713 121.176 27.6963C121.193 27.6797 121.213 27.6664 121.234 27.6574C121.256 27.6483 121.28 27.6437 121.303 27.6437H122.426C122.45 27.6437 122.473 27.6483 122.495 27.6574C122.517 27.6664 122.537 27.6797 122.553 27.6963C122.57 27.713 122.583 27.7329 122.592 27.7547C122.601 27.7765 122.606 27.7998 122.606 27.8235V30.7563C122.605 30.9331 122.628 31.1092 122.676 31.2795C122.723 31.4445 122.814 31.5934 122.94 31.71C123.097 31.8479 123.283 31.9479 123.485 32.0023C123.782 32.083 124.089 32.1197 124.397 32.1111C124.702 32.1196 125.008 32.0829 125.302 32.0023C125.503 31.9477 125.689 31.8477 125.845 31.71C125.971 31.5936 126.062 31.4445 126.107 31.2795C126.154 31.109 126.177 30.933 126.176 30.7563V27.8235C126.176 27.7998 126.18 27.7765 126.189 27.7547C126.198 27.7329 126.212 27.713 126.228 27.6963C126.245 27.6797 126.265 27.6664 126.287 27.6574C126.308 27.6483 126.332 27.6437 126.355 27.6437H127.483C127.507 27.6437 127.53 27.6483 127.552 27.6574C127.574 27.6664 127.593 27.6797 127.61 27.6963C127.627 27.713 127.64 27.7329 127.649 27.7547C127.658 27.7765 127.663 27.7998 127.663 27.8235V31.2937C127.663 31.5653 127.593 31.8323 127.458 32.0685Z" fill="#2DAFE7"></path><path d="M150.295 29.5945C150.297 29.8517 150.257 30.1075 150.175 30.3513C150.097 30.5792 149.964 30.7843 149.788 30.9483C149.589 31.1281 149.353 31.2616 149.096 31.339C148.761 31.4403 148.413 31.4879 148.063 31.48H145.775C145.727 31.48 145.681 31.499 145.647 31.5327C145.614 31.5664 145.595 31.6121 145.595 31.6598V33.0391C145.595 33.0867 145.575 33.1323 145.542 33.166C145.508 33.1997 145.463 33.2187 145.415 33.2189H144.287C144.24 33.2189 144.194 33.2 144.16 33.1663C144.126 33.1325 144.108 33.0868 144.108 33.0391V27.8925C144.108 27.8448 144.126 27.7991 144.16 27.7654C144.194 27.7317 144.24 27.7127 144.287 27.7127H148.063C148.413 27.705 148.761 27.7516 149.096 27.8509C149.353 27.9281 149.589 28.0609 149.788 28.2397C149.963 28.4037 150.096 28.608 150.175 28.8348C150.257 29.0795 150.298 29.3363 150.295 29.5945ZM148.792 29.6181C148.794 29.5057 148.776 29.3937 148.738 29.288C148.702 29.1964 148.64 29.1174 148.56 29.0609C148.462 28.9959 148.351 28.9518 148.235 28.9313C148.073 28.9003 147.908 28.8861 147.742 28.8887H145.775C145.751 28.8887 145.728 28.8933 145.706 28.9024C145.684 28.9114 145.664 28.9247 145.647 28.9413C145.631 28.958 145.617 28.9779 145.608 28.9997C145.599 29.0215 145.595 29.0448 145.595 29.0685V30.1281C145.595 30.1758 145.614 30.2215 145.647 30.2552C145.681 30.2889 145.727 30.3078 145.775 30.3078H147.742C147.907 30.31 148.072 30.2986 148.235 30.2738C148.35 30.2577 148.461 30.2181 148.56 30.1574C148.64 30.1056 148.702 30.0307 148.738 29.9426C148.776 29.8398 148.794 29.7307 148.792 29.621V29.6181Z" fill="#2DAFE7"></path></svg>